<svg width="140" height="24" viewBox="0 0 140 24" fill="none" xmlns="http://www.w3.org/2000/svg">
<path d="M38.3151 12.9173V18.7994H35.2407V2.76111H40.6893C41.5573 2.76111 42.3414 2.88962 43.0416 3.14665C43.7418 3.39633 44.3363 3.74882 44.825 4.20412C45.3209 4.65208 45.7002 5.19183 45.9628 5.82337C46.2327 6.45492 46.3676 7.15623 46.3676 7.92731C46.3676 8.64697 46.2327 9.31157 45.9628 9.92108C45.7002 10.5306 45.3209 11.0593 44.825 11.5073C44.3363 11.9479 43.7418 12.2931 43.0416 12.5427C42.3414 12.7924 41.5573 12.9173 40.6893 12.9173H38.3151ZM38.3151 10.4058H40.6893C41.1269 10.4058 41.5062 10.3397 41.8272 10.2075C42.1481 10.0753 42.4143 9.89538 42.6258 9.66773C42.8447 9.44008 43.0051 9.17938 43.1072 8.88564C43.2166 8.58455 43.2714 8.27245 43.2714 7.94934C43.2714 7.57481 43.2166 7.226 43.1072 6.90288C43.0051 6.57976 42.8447 6.29703 42.6258 6.0547C42.4143 5.81236 42.1481 5.62143 41.8272 5.4819C41.5062 5.34237 41.1269 5.27261 40.6893 5.27261H38.3151V10.4058Z" fill="black"/>
<path d="M49.2451 1.87988H55.8643V16.31H59.256V18.7994H49.2451V16.31H52.7899V4.38037H49.2451V1.87988Z" fill="black"/>
<path d="M69.4639 18.7994C69.3909 18.6526 69.3289 18.4837 69.2779 18.2927C69.2268 18.1018 69.1831 17.8999 69.1466 17.6869C68.9788 17.8705 68.7856 18.0431 68.5667 18.2046C68.3479 18.3662 68.1036 18.5094 67.8337 18.6342C67.5711 18.7517 67.2794 18.8435 66.9584 18.9096C66.6375 18.983 66.291 19.0198 65.919 19.0198C65.3136 19.0198 64.7556 18.9316 64.2451 18.7554C63.7418 18.5791 63.3078 18.3331 62.9431 18.0174C62.5784 17.7016 62.2939 17.3271 62.0897 16.8938C61.8855 16.4532 61.7834 15.9758 61.7834 15.4618C61.7834 14.206 62.2465 13.2367 63.1729 12.5537C64.1065 11.8635 65.496 11.5183 67.3414 11.5183H69.0372V10.8133C69.0372 10.2405 68.8512 9.7889 68.4792 9.45844C68.1072 9.12063 67.5711 8.95173 66.8709 8.95173C66.2509 8.95173 65.7987 9.08759 65.5142 9.3593C65.2298 9.62367 65.0875 9.97983 65.0875 10.4278H62.046C62.046 9.92108 62.1554 9.44008 62.3742 8.98478C62.6003 8.52948 62.9249 8.12925 63.3479 7.78411C63.7783 7.43896 64.2998 7.16725 64.9125 6.96897C65.5325 6.76335 66.24 6.66054 67.035 6.66054C67.7498 6.66054 68.4136 6.74866 69.0263 6.92491C69.6462 7.10115 70.1823 7.36185 70.6346 7.707C71.0868 8.05215 71.4405 8.48909 71.6958 9.01782C71.9511 9.53922 72.0788 10.1451 72.0788 10.8354V15.9465C72.0788 16.5854 72.1189 17.1141 72.1991 17.5327C72.2794 17.9513 72.3961 18.3111 72.5492 18.6122V18.7994H69.4639ZM66.5645 16.6515C66.8709 16.6515 67.1554 16.6147 67.4179 16.5413C67.6805 16.4679 67.9176 16.3724 68.1291 16.2549C68.3406 16.1374 68.523 16.0052 68.6761 15.8584C68.8293 15.7041 68.9497 15.5499 69.0372 15.3957V13.3469H67.4836C67.0095 13.3469 66.6047 13.3946 66.2691 13.4901C65.9336 13.5782 65.6601 13.7067 65.4486 13.8756C65.2371 14.0371 65.0802 14.2354 64.9781 14.4704C64.876 14.6981 64.8249 14.9477 64.8249 15.2195C64.8249 15.6307 64.9672 15.9722 65.2516 16.2439C65.5434 16.5156 65.981 16.6515 66.5645 16.6515Z" fill="black"/>
<path d="M80.5689 13.7985L80.919 15.0763L84.07 6.88085H87.4289L81.4223 20.5839C81.291 20.885 81.1196 21.2118 80.9081 21.5643C80.7038 21.9168 80.4449 22.2436 80.1313 22.5447C79.8176 22.8457 79.4347 23.0991 78.9825 23.3047C78.5375 23.5103 78.0087 23.6132 77.396 23.6132C77.2502 23.6132 77.1152 23.6058 76.9912 23.5911C76.8672 23.5838 76.7469 23.5691 76.6302 23.5471C76.5135 23.5324 76.3968 23.5103 76.2801 23.481C76.1707 23.4589 76.0503 23.4296 75.919 23.3928L76.291 21.0576C76.415 21.0576 76.5718 21.0613 76.7615 21.0686C76.9584 21.0833 77.1152 21.0906 77.2319 21.0906C77.4726 21.0906 77.6842 21.0172 77.8665 20.8703C78.0561 20.7235 78.2166 20.5619 78.3479 20.3857C78.4792 20.2094 78.585 20.0479 78.6652 19.901C78.7454 19.7541 78.8001 19.6807 78.8293 19.6807L79.5623 18.2927L74.5514 6.88085H77.8774L80.5689 13.7985Z" fill="black"/>
<path d="M99.3873 18.7994H96.3457V11.8488H91.838V18.7994H88.7855V2.76111H91.838V9.33727H96.3457V2.76111H99.3873V18.7994Z" fill="black"/>
<path d="M114.037 5.28362H109.125V18.7994H106.039V5.28362H101.193V2.76111H114.037V5.28362Z" fill="black"/>
<path d="M119.562 2.76111L121.072 8.7865L122.79 2.76111H126.608V18.7994H123.786V14.0518L123.917 6.55039L121.827 13.5121H120.306L118.435 6.8478L118.567 14.0518V18.7994H115.744V2.76111H119.562Z" fill="black"/>
<path d="M132.538 16.299H140V18.7994H129.453V2.76111H132.538V16.299Z" fill="black"/>
<path d="M17.8424 11.741L17.0984 12.0164L17.8424 12.2808L23.838 14.2966V17.2817L14.1553 13.2391V10.7606L23.838 6.71802V9.69216L17.8424 11.741Z" fill="#FF4B33"/>
<path d="M5.99577 12.2587L6.73976 11.9834L5.99577 11.719L0.000154791 9.70319L0.000154532 6.71803L9.68286 10.7607L9.68286 13.2391L0.000155449 17.2817L0.000155191 14.3076L5.99577 12.2587Z" fill="#141414"/>
<path d="M11.6617 6.03637L11.9352 6.78541L12.1978 6.03637L14.2 -4.03856e-05L17.1649 -4.05161e-05L13.1496 9.74853L10.6879 9.74853L6.67261 -4.00543e-05L9.62665 -4.01843e-05L11.6617 6.03637Z" fill="#13D6C3"/>
<path d="M12.1762 17.9636L11.9027 17.2146L11.6401 17.9636L9.63794 24L6.67295 24L10.6883 14.2515L13.15 14.2515L17.1653 24L14.2112 24L12.1762 17.9636Z" fill="#FFB500"/>
</svg>
